<svg id="Layer_1" data-name="Layer 1" xmlns="http://www.w3.org/2000/svg" width="37.96mm" height="17.38mm" viewBox="0 0 107.61 49.26"><path d="M26.48,23H3.75s-3.32.39-2.66-2.77S6.9.8,26.33,1h.11C45.87.8,51,17.07,51.68,20.24S49,23,49,23H26.48Z" transform="translate(0 0)" fill="#fcc986" stroke="#1d1d1b" stroke-miterlimit="10" stroke-width="2"/><rect x="2.47" y="23.13" width="48.09" height="5.54" rx="2.77" fill="#8c5214"/><path d="M46.34,29.29H6.7c-2.85,0-5.17-1.52-5.17-3.39s2.32-3.39,5.17-3.39H46.34c2.85,0,5.17,1.53,5.17,3.39S49.19,29.29,46.34,29.29ZM6.7,23.75c-1.81,0-3.28,1-3.28,2.15s1.47,2.16,3.28,2.16H46.34c1.81,0,3.28-1,3.28-2.16s-1.47-2.15-3.28-2.15Z" transform="translate(0 0)" fill="#1d1d1b"/><rect x="2.22" y="34.09" width="48.6" height="5.54" rx="2.77" fill="#8c5114"/><path d="M46.55,40.25H6.49c-2.88,0-5.22-1.52-5.22-3.39s2.34-3.39,5.22-3.39H46.55c2.88,0,5.22,1.52,5.22,3.39S49.43,40.25,46.55,40.25ZM6.49,34.71c-1.83,0-3.32,1-3.32,2.15S4.66,39,6.49,39H46.55c1.83,0,3.31-1,3.31-2.16s-1.48-2.15-3.31-2.15Z" transform="translate(0 0)" fill="#1d1d1b"/><rect x="1" y="28.29" width="51.04" height="5.43" rx="2.72" fill="#bc1818"/><path d="M47.55,34.34H5.48C2.46,34.34,0,32.84,0,31s2.46-3.32,5.48-3.32H47.55c3,0,5.49,1.49,5.49,3.32S50.58,34.34,47.55,34.34ZM5.48,28.9C3.56,28.9,2,29.85,2,31s1.56,2.11,3.48,2.11H47.55c1.93,0,3.49-.94,3.49-2.11s-1.56-2.11-3.49-2.11Z" transform="translate(0 0)" fill="#1d1d1b"/><rect x="1" y="39.29" width="51.04" height="8.97" rx="4.48" fill="#fcc986"/><path d="M47.55,49.26H5.48a5.49,5.49,0,0,1,0-11H47.55a5.49,5.49,0,1,1,0,11Zm-42.07-9a3.49,3.49,0,0,0,0,7H47.55a3.49,3.49,0,1,0,0-7Z" transform="translate(0 0)" fill="#1d1d1b"/><circle cx="24.31" cy="11.14" r="1.6" fill="#fee3c3"/><circle cx="36.57" cy="10.25" r="1.71" fill="#fee3c3"/><circle cx="37.96" cy="16.48" r="1.85" fill="#fee3c3"/><circle cx="12.65" cy="16.28" r="1.65" fill="#fee3c3"/><text/><text/><text transform="translate(55.59 31.01)" font-size="14" fill="#1d1d1b" font-family="MyriadPro-Bold, Myriad Pro" font-weight="700">NEH<tspan x="26.78" y="0" letter-spacing="-0.08em">A</tspan><tspan x="34.8" y="0">TU</tspan></text></svg>