<svg width="111" height="64" viewBox="0 0 111 64" fill="none" xmlns="http://www.w3.org/2000/svg">
<path d="M30.7683 20.1869C30.7683 18.072 30.7683 15.961 27.7076 15.961H25.1569C22.0961 15.961 22.0961 18.072 22.0961 20.1869V22.0849C22.0961 23.3553 23.1164 24.3857 24.3745 24.3857H28.4862C29.7442 24.3857 30.7645 23.3553 30.7645 22.0849V20.1869H30.7683Z" fill="#3F3E3E"/>
<path d="M47.944 6.39748C48.1204 6.62601 48.3237 6.92039 48.527 7.22252C49.1138 8.10179 50.3067 8.33419 51.1543 7.7067C51.1658 7.69508 51.1773 7.68733 51.1888 7.67958C51.419 7.40844 52.5313 7.00173 52.8918 6.96687C53.9389 6.89715 53.9734 6.93201 55.3466 7.74543C56.1981 8.25285 57.8358 8.89584 59.1783 8.89584C59.2627 8.89584 59.3317 8.89584 59.3969 8.89584C59.4698 8.89584 59.5427 8.89197 59.6194 8.88422C61.3991 8.67893 62.9947 7.45493 64.4829 5.90556C65.0697 5.29355 65.1848 4.36393 64.7552 3.63186C64.6976 3.53115 64.6363 3.43044 64.5826 3.3336C64.4061 3.02373 64.1837 2.67125 63.9535 2.33039C63.3552 1.42788 62.1202 1.21871 61.2687 1.88882C60.2522 2.68674 59.4621 3.17092 58.6221 3.1012C58.1619 3.06634 55.8375 1.95079 55.2162 1.71064C54.1614 1.3078 53.471 0.901093 52.3587 0.901093C50.7899 0.901093 49.3247 1.79973 47.7368 3.05859C46.9582 3.67446 46.8048 4.80163 47.3725 5.61892C47.5681 5.89006 47.7637 6.16508 47.944 6.39748Z" fill="#3F3E3E"/>
<path d="M55.8797 20.2295C46.7741 20.2295 39.3638 27.7129 39.3638 36.9084C39.3638 46.104 46.7741 53.5874 55.8797 53.5874C64.9853 53.5874 72.3956 46.104 72.3956 36.9084C72.3956 27.7129 64.9853 20.2295 55.8797 20.2295ZM55.8797 52.8127C47.196 52.8127 40.1309 45.6779 40.1309 36.9084C40.1309 28.139 47.196 21.0042 55.8797 21.0042C64.5634 21.0042 71.6285 28.139 71.6285 36.9084C71.6285 45.6779 64.5634 52.8127 55.8797 52.8127Z" fill="#3F3E3E"/>
<path d="M55.8797 29.7813C51.9866 29.7813 48.8223 32.9808 48.8223 36.9084C48.8223 40.84 51.9904 44.0355 55.8797 44.0355C59.7728 44.0355 62.9371 40.8361 62.9371 36.9084C62.9371 32.9769 59.7728 29.7813 55.8797 29.7813ZM55.8797 43.2609C52.4124 43.2609 49.5894 40.41 49.5894 36.9084C49.5894 33.4069 52.4124 30.556 55.8797 30.556C59.347 30.556 62.17 33.4069 62.17 36.9084C62.17 40.4139 59.347 43.2609 55.8797 43.2609Z" fill="#3F3E3E"/>
<path d="M102.746 32.6825C100.756 30.9937 100.299 30.1493 100.299 28.5109C100.299 26.822 101.27 26.396 102.493 26.396C103.974 26.396 105.807 26.977 106.624 26.977H107.031C108.764 26.977 108.968 25.9738 108.968 25.3927V21.3257C108.968 19.846 106.11 19.0558 101.88 19.0558C99.4286 19.0558 96.1108 19.3463 93.8517 21.8331C92.421 20.2101 90.4687 19.3192 88.0562 19.3192H76.9868C76.5265 19.3192 76.1468 19.3696 75.8169 19.4587C70.9764 13.8267 63.8423 10.2554 55.8797 10.2554C41.3046 10.2554 29.4873 22.1894 29.4873 36.9084C29.4873 41.3667 30.5766 45.5655 32.4943 49.2569C32.0648 49.2647 31.5891 49.2685 31.056 49.2685C29.4758 49.2143 29.4758 47.5758 29.4758 46.3092V27.465C29.4758 26.7097 29.1459 26.0319 28.6281 25.5671H26.6758C26.649 25.5671 26.6221 25.5709 26.5953 25.5709H23.6917C23.1624 25.5709 22.6676 25.4237 22.2419 25.172L22.2151 25.1836C21.5285 24.7653 21.026 24.068 20.8688 23.2469C20.8688 23.243 20.8688 23.243 20.8688 23.2391C20.8534 23.1578 20.8381 23.0726 20.8304 22.9874C20.8227 22.9215 20.8189 22.8518 20.8151 22.7821C20.8151 22.7511 20.8074 22.7201 20.8074 22.6852V21.376C20.8074 20.6633 20.8112 19.9506 20.9301 19.3192C20.8726 19.3192 20.8189 19.3192 20.7614 19.3192H17.8042C15.2037 19.3192 15.0502 21.2211 13.3664 25.3927C12.8563 26.6594 11.4295 32.8956 9.89909 32.8956C9.64594 32.8956 9.64594 32.8956 9.64594 23.5451C9.64594 21.4302 9.64594 19.3192 6.58517 19.3192H4.02302C0.96225 19.3192 0.96225 21.4302 0.96225 23.5451V52.5997C0.96225 54.7146 0.96225 56.8256 4.02302 56.8256H6.57367C9.63444 56.8256 9.63444 54.7107 9.63444 52.5997V44.6747C9.63444 43.776 9.53088 42.827 9.53088 42.1376C9.53088 41.452 9.63444 40.9755 9.93745 40.9755C11.418 40.9755 12.2848 45.7282 14.5785 52.65C15.7023 56.0819 15.9056 56.8256 19.1696 56.8256H21.8238C22.2266 56.8256 22.5794 56.7946 22.8863 56.7365C23.1701 56.7946 23.4961 56.8256 23.8643 56.8256H35.3902C36.4641 56.8256 37.1545 56.5622 37.6071 56.1322C42.3479 60.73 48.7839 63.5615 55.8797 63.5615C63.1404 63.5615 69.7146 60.5983 74.486 55.8069C74.9117 56.4266 75.6635 56.8256 76.9868 56.8256H79.5374C82.5982 56.8256 82.5982 54.7107 82.5982 52.5997V44.8335C82.5982 44.357 82.648 43.9348 83.8716 43.9348C83.8716 43.9348 84.4853 44.0394 85.7587 44.0394C88.6162 44.0394 93.4605 43.5126 95.0906 39.9181C95.2363 39.6082 95.3821 39.2093 95.5278 38.7522C96.3333 39.6121 97.2538 40.5456 98.3048 41.6069C101.415 44.7754 101.465 45.674 101.465 46.8903C101.465 48.5287 99.5283 49.6907 98.0976 49.6907C95.1903 49.6907 94.0665 48.9006 92.7432 48.9006C91.3662 48.9006 90.8561 49.5358 90.8561 50.1672V54.2343C90.8561 56.3492 94.5267 57.0851 98.3048 57.0851C99.885 57.0851 101.826 56.8759 103.203 56.5041C104.327 56.1865 106.977 55.1833 108.661 52.5416C109.988 50.4809 110.038 48.2614 110.038 45.8328C110.038 41.5565 108.814 37.8613 102.746 32.6825ZM20.8036 44.818C19.2463 41.0452 17.7275 37.6134 17.4897 37.0672C17.1329 36.2732 16.9297 35.9594 16.9297 35.7464C16.9297 35.5334 18.974 31.6599 20.8036 28.0925V44.818ZM55.8797 56.353C45.2437 56.353 36.6252 47.6456 36.6252 36.9084C36.6252 26.1674 45.2476 17.4638 55.8797 17.4638C66.5119 17.4638 75.1342 26.1713 75.1342 36.9084C75.1342 47.6494 66.5119 56.353 55.8797 56.353ZM84.8957 36.432C82.8552 36.432 82.5483 36.1144 82.5483 34.3713C82.5483 33.7361 82.5982 32.7871 82.5982 31.7297C82.5982 30.6219 82.5483 29.7232 82.5483 29.0338C82.5483 27.1319 82.8552 26.4463 84.8957 26.4463C87.1893 26.4463 87.6995 29.3514 87.6995 31.7297C87.6995 34.1079 87.5997 36.432 84.8957 36.432Z" fill="#3F3E3E"/>
</svg>
